<svg xmlns="http://www.w3.org/2000/svg" viewBox="0 0 371.69 160.69"><defs><style>.cls-1{fill:#db0d56;}.cls-2{fill:#c70c53;}.cls-3{fill:#901334;}.cls-4{fill:#697331;}.cls-5{fill:#99ac3a;}.cls-6{fill:#4c5425;}.cls-7{fill:#fdfdfd;}</style></defs><g id="Layer_2" data-name="Layer 2"><g id="Layer_4" data-name="Layer 4"><path class="cls-1" d="M188.54,152.87c-23.55-.49-45.36-2.88-66.59-9.2-16.2-4.82-31.22-12.28-45.6-21.06-14-8.58-27.37-18.16-38.93-30-11.77-12-21.85-25.33-28.34-41A18.56,18.56,0,0,1,7.58,45a4.25,4.25,0,0,1,1.74-3.83c1.58-1,2.88.1,4.1.91,2.8,1.86,5.52,3.85,8.32,5.7,14.56,9.62,29.63,18.3,45.77,25a190.37,190.37,0,0,0,43.4,12c13.07,1.64,26,2.81,39.07,2a248.93,248.93,0,0,0,30.7-3.53c20.74-4,39.14-9.77,58.93-17.23,9.64-4,19.17-8.07,29.42-10.3,3.69-.8,7.69-.36,11.42,0a11.26,11.26,0,0,1,8.36,5.14c.26.41.61.73.94,1.3s-1.61.17-2-.06c-1.64-1-2.93-2.65-5.09-1-1.24,1.51-.51,3.62-.41,5.51a42.21,42.21,0,0,1-1.5,14.06c-1.13,5.35.42,6.43,3.13,9.05a26.53,26.53,0,0,1,11.05,14.82,11.42,11.42,0,0,0,1.36,2.73c1.52,2,2.75,1.57,5.18.62.88-.34,1.78-.78,3.09-1.42a5.62,5.62,0,0,1-.09,3.7c-.91,3.77-2,6.81-4.89,9.5-7.16,6.75-15.81,11.65-24.69,15.65-18.63,8.37-38.24,13-58.47,15.46C206.65,152,196.85,152.24,188.54,152.87Zm-158-91C47.42,82.42,74,98.38,109.74,104.45c23.58,3.41,47,2.58,69.26-7.49C125.37,102.81,74.9,95.62,30.58,61.84ZM269.94,74c-.1-2.5.06-4.39-.61-6.18-1.06-2.82-3-2.87-5.59-1.81-4.54,1.83-6.16,8.22-4.82,12.66.81,2.72,2.35,3.75,4.91,3.61s4.9-1.25,5.6-4.1A29.41,29.41,0,0,0,269.94,74Zm2.22,18.25c.06-3.16-2.21-6.1-4.58-6-1.88,0-3.2,2-3.17,4.16,0,2.59,1.74,5.46,4,5.61A3.48,3.48,0,0,0,272.16,92.23Z"/><path class="cls-2" d="M283.88,89.9a21,21,0,0,1,4.48,3.63,34.71,34.71,0,0,1,6.57,11.19,11.42,11.42,0,0,0,1.36,2.73c1.52,2,2.75,1.57,5.18.62.88-.34,1.78-.77,3.09-1.42a5.62,5.62,0,0,1-.09,3.7c-.91,3.78-2,6.81-4.89,9.5-7.16,6.75-15.81,11.65-24.69,15.65-18.63,8.38-38.24,13-58.47,15.47-9.77,1.18-19.57,1.41-27.89,2-23.54-.48-45.35-2.88-66.58-9.2-16.2-4.82-31.22-12.27-45.6-21.06-14-8.58-27.37-18.16-38.93-30C22.9,77.91,13.76,66.2,9.08,51.8a24.38,24.38,0,0,1-1.5-6.62C77.31,185.15,299.58,127.82,283.88,89.9Z"/><path class="cls-3" d="M29.58,84.05c75.66,91,219.17,79.88,270,35.66C231,155.49,113.2,169.26,29.58,84.05Z"/><path class="cls-4" d="M365.14,12c-.29,20.48-7.3,38.21-21.64,52.7a96.73,96.73,0,0,1-21.06,15.58C314,85.08,307.77,91.71,304.31,101c-.91,2.41-1.85,5.74-4.77,5.66-2.37-.06-2.33-3.51-3.19-5.46-2.3-5.22-5.48-9.62-10.37-12.51-2.81-1.66-3.78-4-3.12-7,1.28-5.87,1.07-11.78.69-17.69-.16-2.56,1-3.14,2.79-1.65,12.29,10.05,25.05,6.57,37.75,1.28,9.93-4.13,17.71-11,23.69-20.07,5.1-7.72,5.19-16.15,0-23.63a6,6,0,0,1-.95-5.69c1-3.11,8.56-8.72,12.31-8.49C365.09,6.1,365.23,6,365.14,12Z"/><path class="cls-5" d="M363.27,6.92c-6.33,1.39-6.27,5-6.15,10.69.26,12-2.15,23.15-9.67,32.5C337.18,62.88,325,73.47,309,78.51c-1.76.55-3.63.75-5.44,1.14-2.46.53-4.82.46-6.34-1.84s-1.17-4.49.21-6.68c.39-.63,1.81-2,2.2-2.64,15.39,1.44,36.87-7.28,48.61-24.74,4.34-8,5.17-15.44-.45-23a5.34,5.34,0,0,1-1.08-4.56C348,10.33,356.53,3.93,363.27,6.92Z"/><path class="cls-6" d="M296.33,100.87c1.78.67,3.33.8,4.18-1.44.43-1.14,1.4-2.11,1.7-3.27C305,90,313.47,82.27,323.15,78.67c.19-.07,2.62-1,2.91-.77-3.35,3.1-9.56,6.39-12.93,9.52-3.65,3.39-5.82,7.6-7.95,11.91-.33.66-.55,1.38-.91,2-1.22,2.21-1.91,5.68-4.89,5.31C297,106.38,297.06,103,296.33,100.87Z"/><path class="cls-6" d="M288.77,90.47c4.43-1.65,8.67,1.24,8.21,5.65a22.54,22.54,0,0,1-.92,3.52Z"/><path class="cls-6" d="M283.84,67.11c4,4.69,3.91,8.8-.13,11.38C283.75,74.7,283.8,70.91,283.84,67.11Z"/><path class="cls-7" d="M180.36,96.68C136.27,119.27,59.05,101,30.13,61.7,75,95.67,125.45,103,180.36,96.68Z"/><path class="cls-7" d="M270.39,72.41c.09,5.29-.27,9.8-6.38,10-4.1.11-5.79-2.87-5.64-6.41.21-5.19,2.42-10.14,7.95-10.59C271,65,269.93,70,270.39,72.41Z"/><path class="cls-7" d="M272.63,92.19c0,2.38-1.15,4-3.52,3.82-3.33-.21-4.64-2.8-4.7-5.67,0-2.16,1.18-4.45,3.77-4.14C271.38,86.6,272.37,89.27,272.63,92.19Z"/><g id="Black"><path d="M188.6,160.68a230.94,230.94,0,0,1-67.41-9c-27.79-8.09-52.5-22.35-75-40.41C28.51,97.06,14,80.3,4.31,59.62,1.94,54.54-.3,49.44,0,43.53c.23-4.08,1.32-7.44,5.07-9.32a10.4,10.4,0,0,1,11,.79C26.79,42.16,37.5,49.27,48.78,55.5a193,193,0,0,0,76.28,23.66c28.8,2.68,56.6-2.26,84.15-9.59,14.48-3.86,28.14-10.16,42.25-15.1,8.23-2.88,16.52-5.45,25.45-5.53,7.83-.07,13.84,2.93,18,9.34,2.45,3.74,5.91,5.27,9.91,4.56,15.36-2.73,29-8.57,37.48-22.72,3.23-5.37,3.72-10.45,0-16.06-4.82-7.19-1.93-15.56,6.36-20.67A21.7,21.7,0,0,1,361.85.05c6,.38,9.71,4,9.82,10,.61,32.1-13.75,55.94-40.33,73-6.08,3.91-12.54,7.32-16.87,13.42-1.18,1.68-2.31,3.44-2,5.51,2.24,15-6.47,23.79-17.55,31.25-15.34,10.34-32.56,16.28-50.25,20.81-10.6,2.72-21.59,3.68-32.43,5.34C203.78,160.7,195.32,160,188.6,160.68ZM289.75,62.22c-2.89-4.81-6.73-6.49-11.53-6.71-11.12-.52-21.1,3.73-31,7.68-23.5,9.34-47.33,17.06-72.48,21.08C139.29,89.93,105,87,71.53,74.38,50.91,66.64,32.28,55.24,14.17,42.92,12.75,42,11.4,40.7,9,41.23c-2.56,3-1.22,6.43,0,9.59A105.85,105.85,0,0,0,24,77.13c14.21,18.65,32.2,33,52.15,45,13.73,8.28,28,15.46,43.36,20.21,25.45,7.86,51.49,10.47,78.07,9.35,22.88-1,45.22-4.61,66.75-12.47,12.68-4.64,25-10.19,35-19.65a15.62,15.62,0,0,0,5.23-13.08c-6.61,3.62-7.73,3.27-10.2-3.43a24.94,24.94,0,0,0-9.82-12.86c-3.3-2.14-4.75-5.14-3.91-9a59.71,59.71,0,0,0,1.26-16.75c-.1-1.66,0-3.31,1.72-4C285.91,59.81,287.18,61.82,289.75,62.22Zm-5.67.11a6.09,6.09,0,0,0-.47,2.13,41.79,41.79,0,0,1-.81,17.45c-.66,2.66.35,4.84,2.81,6.36a28.11,28.11,0,0,1,11.33,14c.57,1.44.77,3.23,2.83,3.94,2.85-1.21,3.93-4,4.9-6.6,2.82-7.62,8.14-13.08,14.66-17.52,3.61-2.46,7.46-4.57,11.12-7,21.58-14.09,33.3-33.95,34.6-59.76.5-9.83-3.24-12-12.07-7.26A14.86,14.86,0,0,0,347.82,13a6.15,6.15,0,0,0-.1,7.64c5.43,7.88,4.66,15.76-.31,23.47-8.57,13.28-21.35,20.23-36.31,23.84a27.18,27.18,0,0,1-22.85-4.09C287.16,63.06,286.17,62,284.08,62.33Z"/></g></g></g></svg>